<mxfile modified="2022-05-20T01:27:01.431Z" host="app.diagrams.net" agent="5.0 (Windows NT 10.0; Win64; x64) AppleWebKit/537.36 (KHTML, like Gecko) Chrome/101.0.4951.54 Safari/537.36" etag="k2SRBn_H3dZm4fqKFGUe" compressed="false" version="18.0.8" type="google">
  <diagram id="naf-Tx3YEjzBqu_3aPT0" name="Functionality/Configuration">
    <mxGraphModel grid="1" page="1" gridSize="10" guides="1" tooltips="1" connect="1" arrows="1" fold="1" pageScale="1" pageWidth="827" pageHeight="1169" math="0" shadow="0">
      <root>
        <mxCell id="rTbfJLrGDCR3aCnYn5-e-0" />
        <mxCell id="HSruPu2CeEpyAvJzG3wc-0" value="Notes" parent="rTbfJLrGDCR3aCnYn5-e-0" />
        <UserObject label="&lt;p style=&quot;line-height: 100%&quot;&gt;Default &lt;br style=&quot;font-size: 12px&quot;&gt;Locale Code&lt;br&gt;ISO 639-1&lt;/p&gt;" link="https://en.wikipedia.org/wiki/List_of_ISO_639-1_codes" id="-iLF5fzdPyXUNKCIgrzT-2">
          <mxCell style="rounded=0;whiteSpace=wrap;html=1;fontFamily=Helvetica;fontSize=12;fontColor=#000000;align=center;strokeColor=#000000;strokeWidth=1;gradientColor=#ffffff;" vertex="1" parent="HSruPu2CeEpyAvJzG3wc-0">
            <mxGeometry x="417.97" y="300" width="80" height="40" as="geometry" />
          </mxCell>
        </UserObject>
        <mxCell id="-iLF5fzdPyXUNKCIgrzT-4" value="&lt;p style=&quot;line-height: 100%&quot;&gt;UTC Offset&lt;br style=&quot;font-size: 12px&quot;&gt;(Timezone)&lt;br&gt;ISO 8601&lt;br&gt;&lt;/p&gt;" style="rounded=0;whiteSpace=wrap;html=1;fontFamily=Helvetica;fontSize=12;fontColor=#000000;align=center;strokeColor=#000000;strokeWidth=1;gradientColor=#ffffff;" vertex="1" parent="HSruPu2CeEpyAvJzG3wc-0">
          <mxGeometry x="417.97" y="250" width="80" height="40" as="geometry" />
        </mxCell>
        <UserObject label="Slow&lt;br style=&quot;font-size: 12px;&quot;&gt;Cache Duration" tooltip="eg: 3 seconds" id="-iLF5fzdPyXUNKCIgrzT-9">
          <mxCell style="rounded=0;whiteSpace=wrap;html=1;fontFamily=Helvetica;fontSize=12;fontColor=#000000;align=center;strokeColor=#000000;strokeWidth=1;gradientColor=#ffffff;" vertex="1" parent="HSruPu2CeEpyAvJzG3wc-0">
            <mxGeometry x="510" y="250" width="80" height="40" as="geometry" />
          </mxCell>
        </UserObject>
        <UserObject label="Long&lt;br style=&quot;font-size: 12px;&quot;&gt;Cache Duration" tooltip="eg: 1 minute" id="-iLF5fzdPyXUNKCIgrzT-10">
          <mxCell style="rounded=0;whiteSpace=wrap;html=1;fontFamily=Helvetica;fontSize=12;fontColor=#000000;align=center;strokeColor=#000000;strokeWidth=1;gradientColor=#ffffff;" vertex="1" parent="HSruPu2CeEpyAvJzG3wc-0">
            <mxGeometry x="510" y="300" width="80" height="40" as="geometry" />
          </mxCell>
        </UserObject>
        <mxCell id="-iLF5fzdPyXUNKCIgrzT-11" value="Cache&lt;br&gt;ConnString&lt;br&gt;Template" style="rounded=0;whiteSpace=wrap;html=1;fontFamily=Helvetica;fontSize=12;fontColor=#000000;align=center;strokeColor=#000000;strokeWidth=1;gradientColor=#ffffff;" vertex="1" parent="HSruPu2CeEpyAvJzG3wc-0">
          <mxGeometry x="327.97" y="250" width="80" height="40" as="geometry" />
        </mxCell>
        <mxCell id="-iLF5fzdPyXUNKCIgrzT-12" value="DataStore/DB ConnString&lt;br&gt;Template" style="rounded=0;whiteSpace=wrap;html=1;fontFamily=Helvetica;fontSize=12;fontColor=#000000;align=center;strokeColor=#000000;strokeWidth=1;gradientColor=#ffffff;" vertex="1" parent="HSruPu2CeEpyAvJzG3wc-0">
          <mxGeometry x="327.97" y="300" width="80" height="40" as="geometry" />
        </mxCell>
        <mxCell id="-iLF5fzdPyXUNKCIgrzT-15" value="IdP ConnString&lt;br&gt;Template" style="rounded=0;whiteSpace=wrap;html=1;fontFamily=Helvetica;fontSize=12;fontColor=#000000;align=center;strokeColor=#000000;strokeWidth=1;gradientColor=#ffffff;" vertex="1" parent="HSruPu2CeEpyAvJzG3wc-0">
          <mxGeometry x="327.97" y="350" width="80" height="40" as="geometry" />
        </mxCell>
        <mxCell id="-iLF5fzdPyXUNKCIgrzT-16" value="Email MTA Server&lt;br&gt;Variables" style="rounded=0;whiteSpace=wrap;html=1;fontFamily=Helvetica;fontSize=12;fontColor=#000000;align=center;strokeColor=#000000;strokeWidth=1;gradientColor=#ffffff;" vertex="1" parent="HSruPu2CeEpyAvJzG3wc-0">
          <mxGeometry x="327.97" y="400" width="80" height="40" as="geometry" />
        </mxCell>
        <mxCell id="zdsltHLRCwO0lN0FdUvV-1" value="Malware ConnString&lt;br&gt;Template" style="rounded=0;whiteSpace=wrap;html=1;fontFamily=Helvetica;fontSize=12;fontColor=#000000;align=center;strokeColor=#000000;strokeWidth=1;gradientColor=#ffffff;" vertex="1" parent="HSruPu2CeEpyAvJzG3wc-0">
          <mxGeometry x="600" y="300" width="80" height="40" as="geometry" />
        </mxCell>
        <UserObject label="&lt;p style=&quot;line-height: 100%&quot;&gt;Default &lt;br style=&quot;font-size: 12px&quot;&gt;Currency.Code&lt;br&gt;&lt;font style=&quot;font-size: 10px&quot;&gt;ISO-4217:2015&lt;/font&gt;&lt;/p&gt;" link="https://www.iso.org/standard/64758.html" id="zdsltHLRCwO0lN0FdUvV-2">
          <mxCell style="rounded=0;whiteSpace=wrap;html=1;fontFamily=Helvetica;fontSize=12;fontColor=#000000;align=center;strokeColor=#000000;strokeWidth=1;gradientColor=#ffffff;" vertex="1" parent="HSruPu2CeEpyAvJzG3wc-0">
            <mxGeometry x="600" y="350" width="80" height="40" as="geometry" />
          </mxCell>
        </UserObject>
        <mxCell id="zdsltHLRCwO0lN0FdUvV-4" value="Diagnostics&lt;br&gt;Relative Location" style="rounded=0;whiteSpace=wrap;html=1;fontFamily=Helvetica;fontSize=12;fontColor=#000000;align=center;strokeColor=#000000;strokeWidth=1;gradientColor=#ffffff;" vertex="1" parent="HSruPu2CeEpyAvJzG3wc-0">
          <mxGeometry x="327.97" y="200" width="80" height="40" as="geometry" />
        </mxCell>
        <mxCell id="-iLF5fzdPyXUNKCIgrzT-8" value="Diagram/Use Case" parent="rTbfJLrGDCR3aCnYn5-e-0" />
        <mxCell id="-iLF5fzdPyXUNKCIgrzT-7" value="Title/Diagram" parent="rTbfJLrGDCR3aCnYn5-e-0" />
        <mxCell id="rTbfJLrGDCR3aCnYn5-e-1" value="About" parent="rTbfJLrGDCR3aCnYn5-e-0" />
        <mxCell id="-iLF5fzdPyXUNKCIgrzT-1" value="&lt;font style=&quot;font-size: 12px&quot;&gt;System Administrator&lt;/font&gt;" style="shape=umlActor;verticalLabelPosition=bottom;labelBackgroundColor=#ffffff;verticalAlign=top;html=1;comic=0;strokeColor=#000000;strokeWidth=1;fillColor=none;gradientColor=#ffffff;fontSize=10;align=center;" vertex="1" parent="rTbfJLrGDCR3aCnYn5-e-1">
          <mxGeometry x="130" y="290" width="20" height="40" as="geometry" />
        </mxCell>
        <mxCell id="-iLF5fzdPyXUNKCIgrzT-3" value="" style="endArrow=open;endFill=1;endSize=12;html=1;strokeColor=#000000;fontSize=10;entryX=0;entryY=0.5;entryDx=0;entryDy=0;" edge="1" parent="rTbfJLrGDCR3aCnYn5-e-1" target="zdsltHLRCwO0lN0FdUvV-0">
          <mxGeometry width="160" relative="1" as="geometry">
            <mxPoint x="160" y="310" as="sourcePoint" />
            <mxPoint x="220" y="250" as="targetPoint" />
          </mxGeometry>
        </mxCell>
        <mxCell id="-iLF5fzdPyXUNKCIgrzT-5" value="&lt;font style=&quot;font-size: 12px&quot;&gt;&lt;span&gt;Diagram: Information&amp;nbsp;&lt;/span&gt;System Base&amp;nbsp;&lt;span&gt;Logical Module -&amp;nbsp;&lt;/span&gt;&lt;span&gt;Functionality -&amp;nbsp;&lt;/span&gt;Configuration&lt;/font&gt;" style="text;strokeColor=none;fillColor=none;html=1;fontSize=10;fontStyle=2;verticalAlign=middle;align=left;shadow=0;glass=0;comic=0;opacity=30;fontColor=#808080;" vertex="1" parent="rTbfJLrGDCR3aCnYn5-e-1">
          <mxGeometry x="120" y="470" width="520" height="20" as="geometry" />
        </mxCell>
        <mxCell id="zdsltHLRCwO0lN0FdUvV-0" value="Configure Host" style="ellipse;whiteSpace=wrap;html=1;comic=1;strokeColor=#000000;strokeWidth=1;fillColor=none;gradientColor=#ffffff;fontSize=12;align=center;" vertex="1" parent="rTbfJLrGDCR3aCnYn5-e-1">
          <mxGeometry x="200" y="290" width="120" height="40" as="geometry" />
        </mxCell>
      </root>
    </mxGraphModel>
  </diagram>
</mxfile>
